<svg xmlns="http://www.w3.org/2000/svg" xml:space="preserve" xmlns:xlink="http://www.w3.org/1999/xlink" style="max-width: 100%;height: auto;" width="999" height="999" viewBox="0 0 999 999">
<rect width="999" height="999" fill="#ffffff" x="0" y="0"></rect>
<g fill="#000000">
<g transform="translate(270,54) scale(4.635)"><rect width="6" height="6"></rect></g>
<g transform="translate(297,54) scale(4.635)"><rect width="6" height="6"></rect></g>
<g transform="translate(324,54) scale(4.635)"><rect width="6" height="6"></rect></g>
<g transform="translate(459,54) scale(4.635)"><rect width="6" height="6"></rect></g>
<g transform="translate(513,54) scale(4.635)"><rect width="6" height="6"></rect></g>
<g transform="translate(540,54) scale(4.635)"><rect width="6" height="6"></rect></g>
<g transform="translate(594,54) scale(4.635)"><rect width="6" height="6"></rect></g>
<g transform="translate(675,54) scale(4.635)"><rect width="6" height="6"></rect></g>
<g transform="translate(702,54) scale(4.635)"><rect width="6" height="6"></rect></g>
<g transform="translate(270,81) scale(4.635)"><rect width="6" height="6"></rect></g>
<g transform="translate(324,81) scale(4.635)"><rect width="6" height="6"></rect></g>
<g transform="translate(351,81) scale(4.635)"><rect width="6" height="6"></rect></g>
<g transform="translate(378,81) scale(4.635)"><rect width="6" height="6"></rect></g>
<g transform="translate(432,81) scale(4.635)"><rect width="6" height="6"></rect></g>
<g transform="translate(540,81) scale(4.635)"><rect width="6" height="6"></rect></g>
<g transform="translate(648,81) scale(4.635)"><rect width="6" height="6"></rect></g>
<g transform="translate(702,81) scale(4.635)"><rect width="6" height="6"></rect></g>
<g transform="translate(270,108) scale(4.635)"><rect width="6" height="6"></rect></g>
<g transform="translate(432,108) scale(4.635)"><rect width="6" height="6"></rect></g>
<g transform="translate(459,108) scale(4.635)"><rect width="6" height="6"></rect></g>
<g transform="translate(486,108) scale(4.635)"><rect width="6" height="6"></rect></g>
<g transform="translate(621,108) scale(4.635)"><rect width="6" height="6"></rect></g>
<g transform="translate(675,108) scale(4.635)"><rect width="6" height="6"></rect></g>
<g transform="translate(702,108) scale(4.635)"><rect width="6" height="6"></rect></g>
<g transform="translate(297,135) scale(4.635)"><rect width="6" height="6"></rect></g>
<g transform="translate(324,135) scale(4.635)"><rect width="6" height="6"></rect></g>
<g transform="translate(378,135) scale(4.635)"><rect width="6" height="6"></rect></g>
<g transform="translate(432,135) scale(4.635)"><rect width="6" height="6"></rect></g>
<g transform="translate(486,135) scale(4.635)"><rect width="6" height="6"></rect></g>
<g transform="translate(513,135) scale(4.635)"><rect width="6" height="6"></rect></g>
<g transform="translate(540,135) scale(4.635)"><rect width="6" height="6"></rect></g>
<g transform="translate(648,135) scale(4.635)"><rect width="6" height="6"></rect></g>
<g transform="translate(675,135) scale(4.635)"><rect width="6" height="6"></rect></g>
<g transform="translate(702,135) scale(4.635)"><rect width="6" height="6"></rect></g>
<g transform="translate(297,162) scale(4.635)"><rect width="6" height="6"></rect></g>
<g transform="translate(324,162) scale(4.635)"><rect width="6" height="6"></rect></g>
<g transform="translate(351,162) scale(4.635)"><rect width="6" height="6"></rect></g>
<g transform="translate(540,162) scale(4.635)"><rect width="6" height="6"></rect></g>
<g transform="translate(594,162) scale(4.635)"><rect width="6" height="6"></rect></g>
<g transform="translate(270,189) scale(4.635)"><rect width="6" height="6"></rect></g>
<g transform="translate(405,189) scale(4.635)"><rect width="6" height="6"></rect></g>
<g transform="translate(486,189) scale(4.635)"><rect width="6" height="6"></rect></g>
<g transform="translate(540,189) scale(4.635)"><rect width="6" height="6"></rect></g>
<g transform="translate(648,189) scale(4.635)"><rect width="6" height="6"></rect></g>
<g transform="translate(675,189) scale(4.635)"><rect width="6" height="6"></rect></g>
<g transform="translate(702,189) scale(4.635)"><rect width="6" height="6"></rect></g>
<g transform="translate(270,216) scale(4.635)"><rect width="6" height="6"></rect></g>
<g transform="translate(324,216) scale(4.635)"><rect width="6" height="6"></rect></g>
<g transform="translate(378,216) scale(4.635)"><rect width="6" height="6"></rect></g>
<g transform="translate(432,216) scale(4.635)"><rect width="6" height="6"></rect></g>
<g transform="translate(486,216) scale(4.635)"><rect width="6" height="6"></rect></g>
<g transform="translate(540,216) scale(4.635)"><rect width="6" height="6"></rect></g>
<g transform="translate(594,216) scale(4.635)"><rect width="6" height="6"></rect></g>
<g transform="translate(648,216) scale(4.635)"><rect width="6" height="6"></rect></g>
<g transform="translate(702,216) scale(4.635)"><rect width="6" height="6"></rect></g>
<g transform="translate(270,243) scale(4.635)"><rect width="6" height="6"></rect></g>
<g transform="translate(297,243) scale(4.635)"><rect width="6" height="6"></rect></g>
<g transform="translate(324,243) scale(4.635)"><rect width="6" height="6"></rect></g>
<g transform="translate(378,243) scale(4.635)"><rect width="6" height="6"></rect></g>
<g transform="translate(432,243) scale(4.635)"><rect width="6" height="6"></rect></g>
<g transform="translate(459,243) scale(4.635)"><rect width="6" height="6"></rect></g>
<g transform="translate(486,243) scale(4.635)"><rect width="6" height="6"></rect></g>
<g transform="translate(513,243) scale(4.635)"><rect width="6" height="6"></rect></g>
<g transform="translate(540,243) scale(4.635)"><rect width="6" height="6"></rect></g>
<g transform="translate(621,243) scale(4.635)"><rect width="6" height="6"></rect></g>
<g transform="translate(648,243) scale(4.635)"><rect width="6" height="6"></rect></g>
<g transform="translate(675,243) scale(4.635)"><rect width="6" height="6"></rect></g>
<g transform="translate(108,270) scale(4.635)"><rect width="6" height="6"></rect></g>
<g transform="translate(135,270) scale(4.635)"><rect width="6" height="6"></rect></g>
<g transform="translate(162,270) scale(4.635)"><rect width="6" height="6"></rect></g>
<g transform="translate(216,270) scale(4.635)"><rect width="6" height="6"></rect></g>
<g transform="translate(270,270) scale(4.635)"><rect width="6" height="6"></rect></g>
<g transform="translate(297,270) scale(4.635)"><rect width="6" height="6"></rect></g>
<g transform="translate(351,270) scale(4.635)"><rect width="6" height="6"></rect></g>
<g transform="translate(405,270) scale(4.635)"><rect width="6" height="6"></rect></g>
<g transform="translate(459,270) scale(4.635)"><rect width="6" height="6"></rect></g>
<g transform="translate(540,270) scale(4.635)"><rect width="6" height="6"></rect></g>
<g transform="translate(567,270) scale(4.635)"><rect width="6" height="6"></rect></g>
<g transform="translate(594,270) scale(4.635)"><rect width="6" height="6"></rect></g>
<g transform="translate(675,270) scale(4.635)"><rect width="6" height="6"></rect></g>
<g transform="translate(702,270) scale(4.635)"><rect width="6" height="6"></rect></g>
<g transform="translate(729,270) scale(4.635)"><rect width="6" height="6"></rect></g>
<g transform="translate(756,270) scale(4.635)"><rect width="6" height="6"></rect></g>
<g transform="translate(783,270) scale(4.635)"><rect width="6" height="6"></rect></g>
<g transform="translate(864,270) scale(4.635)"><rect width="6" height="6"></rect></g>
<g transform="translate(891,270) scale(4.635)"><rect width="6" height="6"></rect></g>
<g transform="translate(918,270) scale(4.635)"><rect width="6" height="6"></rect></g>
<g transform="translate(54,297) scale(4.635)"><rect width="6" height="6"></rect></g>
<g transform="translate(189,297) scale(4.635)"><rect width="6" height="6"></rect></g>
<g transform="translate(351,297) scale(4.635)"><rect width="6" height="6"></rect></g>
<g transform="translate(405,297) scale(4.635)"><rect width="6" height="6"></rect></g>
<g transform="translate(459,297) scale(4.635)"><rect width="6" height="6"></rect></g>
<g transform="translate(540,297) scale(4.635)"><rect width="6" height="6"></rect></g>
<g transform="translate(594,297) scale(4.635)"><rect width="6" height="6"></rect></g>
<g transform="translate(621,297) scale(4.635)"><rect width="6" height="6"></rect></g>
<g transform="translate(675,297) scale(4.635)"><rect width="6" height="6"></rect></g>
<g transform="translate(729,297) scale(4.635)"><rect width="6" height="6"></rect></g>
<g transform="translate(756,297) scale(4.635)"><rect width="6" height="6"></rect></g>
<g transform="translate(837,297) scale(4.635)"><rect width="6" height="6"></rect></g>
<g transform="translate(864,297) scale(4.635)"><rect width="6" height="6"></rect></g>
<g transform="translate(891,297) scale(4.635)"><rect width="6" height="6"></rect></g>
<g transform="translate(918,297) scale(4.635)"><rect width="6" height="6"></rect></g>
<g transform="translate(108,324) scale(4.635)"><rect width="6" height="6"></rect></g>
<g transform="translate(162,324) scale(4.635)"><rect width="6" height="6"></rect></g>
<g transform="translate(189,324) scale(4.635)"><rect width="6" height="6"></rect></g>
<g transform="translate(216,324) scale(4.635)"><rect width="6" height="6"></rect></g>
<g transform="translate(324,324) scale(4.635)"><rect width="6" height="6"></rect></g>
<g transform="translate(351,324) scale(4.635)"><rect width="6" height="6"></rect></g>
<g transform="translate(432,324) scale(4.635)"><rect width="6" height="6"></rect></g>
<g transform="translate(459,324) scale(4.635)"><rect width="6" height="6"></rect></g>
<g transform="translate(594,324) scale(4.635)"><rect width="6" height="6"></rect></g>
<g transform="translate(621,324) scale(4.635)"><rect width="6" height="6"></rect></g>
<g transform="translate(729,324) scale(4.635)"><rect width="6" height="6"></rect></g>
<g transform="translate(756,324) scale(4.635)"><rect width="6" height="6"></rect></g>
<g transform="translate(783,324) scale(4.635)"><rect width="6" height="6"></rect></g>
<g transform="translate(864,324) scale(4.635)"><rect width="6" height="6"></rect></g>
<g transform="translate(891,324) scale(4.635)"><rect width="6" height="6"></rect></g>
<g transform="translate(54,351) scale(4.635)"><rect width="6" height="6"></rect></g>
<g transform="translate(81,351) scale(4.635)"><rect width="6" height="6"></rect></g>
<g transform="translate(108,351) scale(4.635)"><rect width="6" height="6"></rect></g>
<g transform="translate(162,351) scale(4.635)"><rect width="6" height="6"></rect></g>
<g transform="translate(243,351) scale(4.635)"><rect width="6" height="6"></rect></g>
<g transform="translate(270,351) scale(4.635)"><rect width="6" height="6"></rect></g>
<g transform="translate(378,351) scale(4.635)"><rect width="6" height="6"></rect></g>
<g transform="translate(405,351) scale(4.635)"><rect width="6" height="6"></rect></g>
<g transform="translate(459,351) scale(4.635)"><rect width="6" height="6"></rect></g>
<g transform="translate(513,351) scale(4.635)"><rect width="6" height="6"></rect></g>
<g transform="translate(621,351) scale(4.635)"><rect width="6" height="6"></rect></g>
<g transform="translate(648,351) scale(4.635)"><rect width="6" height="6"></rect></g>
<g transform="translate(702,351) scale(4.635)"><rect width="6" height="6"></rect></g>
<g transform="translate(837,351) scale(4.635)"><rect width="6" height="6"></rect></g>
<g transform="translate(864,351) scale(4.635)"><rect width="6" height="6"></rect></g>
<g transform="translate(891,351) scale(4.635)"><rect width="6" height="6"></rect></g>
<g transform="translate(918,351) scale(4.635)"><rect width="6" height="6"></rect></g>
<g transform="translate(54,378) scale(4.635)"><rect width="6" height="6"></rect></g>
<g transform="translate(162,378) scale(4.635)"><rect width="6" height="6"></rect></g>
<g transform="translate(216,378) scale(4.635)"><rect width="6" height="6"></rect></g>
<g transform="translate(297,378) scale(4.635)"><rect width="6" height="6"></rect></g>
<g transform="translate(324,378) scale(4.635)"><rect width="6" height="6"></rect></g>
<g transform="translate(351,378) scale(4.635)"><rect width="6" height="6"></rect></g>
<g transform="translate(378,378) scale(4.635)"><rect width="6" height="6"></rect></g>
<g transform="translate(432,378) scale(4.635)"><rect width="6" height="6"></rect></g>
<g transform="translate(459,378) scale(4.635)"><rect width="6" height="6"></rect></g>
<g transform="translate(486,378) scale(4.635)"><rect width="6" height="6"></rect></g>
<g transform="translate(540,378) scale(4.635)"><rect width="6" height="6"></rect></g>
<g transform="translate(567,378) scale(4.635)"><rect width="6" height="6"></rect></g>
<g transform="translate(594,378) scale(4.635)"><rect width="6" height="6"></rect></g>
<g transform="translate(621,378) scale(4.635)"><rect width="6" height="6"></rect></g>
<g transform="translate(675,378) scale(4.635)"><rect width="6" height="6"></rect></g>
<g transform="translate(702,378) scale(4.635)"><rect width="6" height="6"></rect></g>
<g transform="translate(729,378) scale(4.635)"><rect width="6" height="6"></rect></g>
<g transform="translate(783,378) scale(4.635)"><rect width="6" height="6"></rect></g>
<g transform="translate(810,378) scale(4.635)"><rect width="6" height="6"></rect></g>
<g transform="translate(54,405) scale(4.635)"><rect width="6" height="6"></rect></g>
<g transform="translate(108,405) scale(4.635)"><rect width="6" height="6"></rect></g>
<g transform="translate(189,405) scale(4.635)"><rect width="6" height="6"></rect></g>
<g transform="translate(243,405) scale(4.635)"><rect width="6" height="6"></rect></g>
<g transform="translate(297,405) scale(4.635)"><rect width="6" height="6"></rect></g>
<g transform="translate(324,405) scale(4.635)"><rect width="6" height="6"></rect></g>
<g transform="translate(378,405) scale(4.635)"><rect width="6" height="6"></rect></g>
<g transform="translate(405,405) scale(4.635)"><rect width="6" height="6"></rect></g>
<g transform="translate(459,405) scale(4.635)"><rect width="6" height="6"></rect></g>
<g transform="translate(486,405) scale(4.635)"><rect width="6" height="6"></rect></g>
<g transform="translate(567,405) scale(4.635)"><rect width="6" height="6"></rect></g>
<g transform="translate(648,405) scale(4.635)"><rect width="6" height="6"></rect></g>
<g transform="translate(675,405) scale(4.635)"><rect width="6" height="6"></rect></g>
<g transform="translate(702,405) scale(4.635)"><rect width="6" height="6"></rect></g>
<g transform="translate(756,405) scale(4.635)"><rect width="6" height="6"></rect></g>
<g transform="translate(864,405) scale(4.635)"><rect width="6" height="6"></rect></g>
<g transform="translate(918,405) scale(4.635)"><rect width="6" height="6"></rect></g>
<g transform="translate(81,432) scale(4.635)"><rect width="6" height="6"></rect></g>
<g transform="translate(108,432) scale(4.635)"><rect width="6" height="6"></rect></g>
<g transform="translate(135,432) scale(4.635)"><rect width="6" height="6"></rect></g>
<g transform="translate(189,432) scale(4.635)"><rect width="6" height="6"></rect></g>
<g transform="translate(216,432) scale(4.635)"><rect width="6" height="6"></rect></g>
<g transform="translate(270,432) scale(4.635)"><rect width="6" height="6"></rect></g>
<g transform="translate(405,432) scale(4.635)"><rect width="6" height="6"></rect></g>
<g transform="translate(432,432) scale(4.635)"><rect width="6" height="6"></rect></g>
<g transform="translate(459,432) scale(4.635)"><rect width="6" height="6"></rect></g>
<g transform="translate(540,432) scale(4.635)"><rect width="6" height="6"></rect></g>
<g transform="translate(648,432) scale(4.635)"><rect width="6" height="6"></rect></g>
<g transform="translate(783,432) scale(4.635)"><rect width="6" height="6"></rect></g>
<g transform="translate(810,432) scale(4.635)"><rect width="6" height="6"></rect></g>
<g transform="translate(837,432) scale(4.635)"><rect width="6" height="6"></rect></g>
<g transform="translate(891,432) scale(4.635)"><rect width="6" height="6"></rect></g>
<g transform="translate(54,459) scale(4.635)"><rect width="6" height="6"></rect></g>
<g transform="translate(108,459) scale(4.635)"><rect width="6" height="6"></rect></g>
<g transform="translate(162,459) scale(4.635)"><rect width="6" height="6"></rect></g>
<g transform="translate(243,459) scale(4.635)"><rect width="6" height="6"></rect></g>
<g transform="translate(270,459) scale(4.635)"><rect width="6" height="6"></rect></g>
<g transform="translate(297,459) scale(4.635)"><rect width="6" height="6"></rect></g>
<g transform="translate(324,459) scale(4.635)"><rect width="6" height="6"></rect></g>
<g transform="translate(378,459) scale(4.635)"><rect width="6" height="6"></rect></g>
<g transform="translate(405,459) scale(4.635)"><rect width="6" height="6"></rect></g>
<g transform="translate(432,459) scale(4.635)"><rect width="6" height="6"></rect></g>
<g transform="translate(486,459) scale(4.635)"><rect width="6" height="6"></rect></g>
<g transform="translate(513,459) scale(4.635)"><rect width="6" height="6"></rect></g>
<g transform="translate(567,459) scale(4.635)"><rect width="6" height="6"></rect></g>
<g transform="translate(594,459) scale(4.635)"><rect width="6" height="6"></rect></g>
<g transform="translate(621,459) scale(4.635)"><rect width="6" height="6"></rect></g>
<g transform="translate(648,459) scale(4.635)"><rect width="6" height="6"></rect></g>
<g transform="translate(756,459) scale(4.635)"><rect width="6" height="6"></rect></g>
<g transform="translate(783,459) scale(4.635)"><rect width="6" height="6"></rect></g>
<g transform="translate(837,459) scale(4.635)"><rect width="6" height="6"></rect></g>
<g transform="translate(864,459) scale(4.635)"><rect width="6" height="6"></rect></g>
<g transform="translate(891,459) scale(4.635)"><rect width="6" height="6"></rect></g>
<g transform="translate(918,459) scale(4.635)"><rect width="6" height="6"></rect></g>
<g transform="translate(81,486) scale(4.635)"><rect width="6" height="6"></rect></g>
<g transform="translate(108,486) scale(4.635)"><rect width="6" height="6"></rect></g>
<g transform="translate(135,486) scale(4.635)"><rect width="6" height="6"></rect></g>
<g transform="translate(162,486) scale(4.635)"><rect width="6" height="6"></rect></g>
<g transform="translate(189,486) scale(4.635)"><rect width="6" height="6"></rect></g>
<g transform="translate(216,486) scale(4.635)"><rect width="6" height="6"></rect></g>
<g transform="translate(270,486) scale(4.635)"><rect width="6" height="6"></rect></g>
<g transform="translate(351,486) scale(4.635)"><rect width="6" height="6"></rect></g>
<g transform="translate(378,486) scale(4.635)"><rect width="6" height="6"></rect></g>
<g transform="translate(783,486) scale(4.635)"><rect width="6" height="6"></rect></g>
<g transform="translate(810,486) scale(4.635)"><rect width="6" height="6"></rect></g>
<g transform="translate(891,486) scale(4.635)"><rect width="6" height="6"></rect></g>
<g transform="translate(918,486) scale(4.635)"><rect width="6" height="6"></rect></g>
<g transform="translate(54,513) scale(4.635)"><rect width="6" height="6"></rect></g>
<g transform="translate(108,513) scale(4.635)"><rect width="6" height="6"></rect></g>
<g transform="translate(162,513) scale(4.635)"><rect width="6" height="6"></rect></g>
<g transform="translate(189,513) scale(4.635)"><rect width="6" height="6"></rect></g>
<g transform="translate(270,513) scale(4.635)"><rect width="6" height="6"></rect></g>
<g transform="translate(297,513) scale(4.635)"><rect width="6" height="6"></rect></g>
<g transform="translate(378,513) scale(4.635)"><rect width="6" height="6"></rect></g>
<g transform="translate(432,513) scale(4.635)"><rect width="6" height="6"></rect></g>
<g transform="translate(486,513) scale(4.635)"><rect width="6" height="6"></rect></g>
<g transform="translate(567,513) scale(4.635)"><rect width="6" height="6"></rect></g>
<g transform="translate(594,513) scale(4.635)"><rect width="6" height="6"></rect></g>
<g transform="translate(621,513) scale(4.635)"><rect width="6" height="6"></rect></g>
<g transform="translate(675,513) scale(4.635)"><rect width="6" height="6"></rect></g>
<g transform="translate(702,513) scale(4.635)"><rect width="6" height="6"></rect></g>
<g transform="translate(756,513) scale(4.635)"><rect width="6" height="6"></rect></g>
<g transform="translate(918,513) scale(4.635)"><rect width="6" height="6"></rect></g>
<g transform="translate(54,540) scale(4.635)"><rect width="6" height="6"></rect></g>
<g transform="translate(216,540) scale(4.635)"><rect width="6" height="6"></rect></g>
<g transform="translate(297,540) scale(4.635)"><rect width="6" height="6"></rect></g>
<g transform="translate(351,540) scale(4.635)"><rect width="6" height="6"></rect></g>
<g transform="translate(378,540) scale(4.635)"><rect width="6" height="6"></rect></g>
<g transform="translate(459,540) scale(4.635)"><rect width="6" height="6"></rect></g>
<g transform="translate(486,540) scale(4.635)"><rect width="6" height="6"></rect></g>
<g transform="translate(594,540) scale(4.635)"><rect width="6" height="6"></rect></g>
<g transform="translate(648,540) scale(4.635)"><rect width="6" height="6"></rect></g>
<g transform="translate(729,540) scale(4.635)"><rect width="6" height="6"></rect></g>
<g transform="translate(864,540) scale(4.635)"><rect width="6" height="6"></rect></g>
<g transform="translate(891,540) scale(4.635)"><rect width="6" height="6"></rect></g>
<g transform="translate(54,567) scale(4.635)"><rect width="6" height="6"></rect></g>
<g transform="translate(108,567) scale(4.635)"><rect width="6" height="6"></rect></g>
<g transform="translate(189,567) scale(4.635)"><rect width="6" height="6"></rect></g>
<g transform="translate(243,567) scale(4.635)"><rect width="6" height="6"></rect></g>
<g transform="translate(297,567) scale(4.635)"><rect width="6" height="6"></rect></g>
<g transform="translate(324,567) scale(4.635)"><rect width="6" height="6"></rect></g>
<g transform="translate(351,567) scale(4.635)"><rect width="6" height="6"></rect></g>
<g transform="translate(378,567) scale(4.635)"><rect width="6" height="6"></rect></g>
<g transform="translate(459,567) scale(4.635)"><rect width="6" height="6"></rect></g>
<g transform="translate(567,567) scale(4.635)"><rect width="6" height="6"></rect></g>
<g transform="translate(594,567) scale(4.635)"><rect width="6" height="6"></rect></g>
<g transform="translate(621,567) scale(4.635)"><rect width="6" height="6"></rect></g>
<g transform="translate(648,567) scale(4.635)"><rect width="6" height="6"></rect></g>
<g transform="translate(675,567) scale(4.635)"><rect width="6" height="6"></rect></g>
<g transform="translate(702,567) scale(4.635)"><rect width="6" height="6"></rect></g>
<g transform="translate(837,567) scale(4.635)"><rect width="6" height="6"></rect></g>
<g transform="translate(864,567) scale(4.635)"><rect width="6" height="6"></rect></g>
<g transform="translate(918,567) scale(4.635)"><rect width="6" height="6"></rect></g>
<g transform="translate(81,594) scale(4.635)"><rect width="6" height="6"></rect></g>
<g transform="translate(135,594) scale(4.635)"><rect width="6" height="6"></rect></g>
<g transform="translate(216,594) scale(4.635)"><rect width="6" height="6"></rect></g>
<g transform="translate(378,594) scale(4.635)"><rect width="6" height="6"></rect></g>
<g transform="translate(405,594) scale(4.635)"><rect width="6" height="6"></rect></g>
<g transform="translate(432,594) scale(4.635)"><rect width="6" height="6"></rect></g>
<g transform="translate(459,594) scale(4.635)"><rect width="6" height="6"></rect></g>
<g transform="translate(486,594) scale(4.635)"><rect width="6" height="6"></rect></g>
<g transform="translate(567,594) scale(4.635)"><rect width="6" height="6"></rect></g>
<g transform="translate(648,594) scale(4.635)"><rect width="6" height="6"></rect></g>
<g transform="translate(702,594) scale(4.635)"><rect width="6" height="6"></rect></g>
<g transform="translate(783,594) scale(4.635)"><rect width="6" height="6"></rect></g>
<g transform="translate(810,594) scale(4.635)"><rect width="6" height="6"></rect></g>
<g transform="translate(837,594) scale(4.635)"><rect width="6" height="6"></rect></g>
<g transform="translate(891,594) scale(4.635)"><rect width="6" height="6"></rect></g>
<g transform="translate(54,621) scale(4.635)"><rect width="6" height="6"></rect></g>
<g transform="translate(81,621) scale(4.635)"><rect width="6" height="6"></rect></g>
<g transform="translate(135,621) scale(4.635)"><rect width="6" height="6"></rect></g>
<g transform="translate(189,621) scale(4.635)"><rect width="6" height="6"></rect></g>
<g transform="translate(243,621) scale(4.635)"><rect width="6" height="6"></rect></g>
<g transform="translate(324,621) scale(4.635)"><rect width="6" height="6"></rect></g>
<g transform="translate(351,621) scale(4.635)"><rect width="6" height="6"></rect></g>
<g transform="translate(378,621) scale(4.635)"><rect width="6" height="6"></rect></g>
<g transform="translate(405,621) scale(4.635)"><rect width="6" height="6"></rect></g>
<g transform="translate(432,621) scale(4.635)"><rect width="6" height="6"></rect></g>
<g transform="translate(459,621) scale(4.635)"><rect width="6" height="6"></rect></g>
<g transform="translate(486,621) scale(4.635)"><rect width="6" height="6"></rect></g>
<g transform="translate(567,621) scale(4.635)"><rect width="6" height="6"></rect></g>
<g transform="translate(702,621) scale(4.635)"><rect width="6" height="6"></rect></g>
<g transform="translate(756,621) scale(4.635)"><rect width="6" height="6"></rect></g>
<g transform="translate(891,621) scale(4.635)"><rect width="6" height="6"></rect></g>
<g transform="translate(918,621) scale(4.635)"><rect width="6" height="6"></rect></g>
<g transform="translate(54,648) scale(4.635)"><rect width="6" height="6"></rect></g>
<g transform="translate(108,648) scale(4.635)"><rect width="6" height="6"></rect></g>
<g transform="translate(189,648) scale(4.635)"><rect width="6" height="6"></rect></g>
<g transform="translate(216,648) scale(4.635)"><rect width="6" height="6"></rect></g>
<g transform="translate(324,648) scale(4.635)"><rect width="6" height="6"></rect></g>
<g transform="translate(378,648) scale(4.635)"><rect width="6" height="6"></rect></g>
<g transform="translate(486,648) scale(4.635)"><rect width="6" height="6"></rect></g>
<g transform="translate(540,648) scale(4.635)"><rect width="6" height="6"></rect></g>
<g transform="translate(648,648) scale(4.635)"><rect width="6" height="6"></rect></g>
<g transform="translate(783,648) scale(4.635)"><rect width="6" height="6"></rect></g>
<g transform="translate(837,648) scale(4.635)"><rect width="6" height="6"></rect></g>
<g transform="translate(864,648) scale(4.635)"><rect width="6" height="6"></rect></g>
<g transform="translate(891,648) scale(4.635)"><rect width="6" height="6"></rect></g>
<g transform="translate(54,675) scale(4.635)"><rect width="6" height="6"></rect></g>
<g transform="translate(162,675) scale(4.635)"><rect width="6" height="6"></rect></g>
<g transform="translate(189,675) scale(4.635)"><rect width="6" height="6"></rect></g>
<g transform="translate(405,675) scale(4.635)"><rect width="6" height="6"></rect></g>
<g transform="translate(459,675) scale(4.635)"><rect width="6" height="6"></rect></g>
<g transform="translate(486,675) scale(4.635)"><rect width="6" height="6"></rect></g>
<g transform="translate(567,675) scale(4.635)"><rect width="6" height="6"></rect></g>
<g transform="translate(594,675) scale(4.635)"><rect width="6" height="6"></rect></g>
<g transform="translate(621,675) scale(4.635)"><rect width="6" height="6"></rect></g>
<g transform="translate(648,675) scale(4.635)"><rect width="6" height="6"></rect></g>
<g transform="translate(675,675) scale(4.635)"><rect width="6" height="6"></rect></g>
<g transform="translate(783,675) scale(4.635)"><rect width="6" height="6"></rect></g>
<g transform="translate(837,675) scale(4.635)"><rect width="6" height="6"></rect></g>
<g transform="translate(864,675) scale(4.635)"><rect width="6" height="6"></rect></g>
<g transform="translate(891,675) scale(4.635)"><rect width="6" height="6"></rect></g>
<g transform="translate(54,702) scale(4.635)"><rect width="6" height="6"></rect></g>
<g transform="translate(216,702) scale(4.635)"><rect width="6" height="6"></rect></g>
<g transform="translate(378,702) scale(4.635)"><rect width="6" height="6"></rect></g>
<g transform="translate(432,702) scale(4.635)"><rect width="6" height="6"></rect></g>
<g transform="translate(459,702) scale(4.635)"><rect width="6" height="6"></rect></g>
<g transform="translate(540,702) scale(4.635)"><rect width="6" height="6"></rect></g>
<g transform="translate(567,702) scale(4.635)"><rect width="6" height="6"></rect></g>
<g transform="translate(648,702) scale(4.635)"><rect width="6" height="6"></rect></g>
<g transform="translate(675,702) scale(4.635)"><rect width="6" height="6"></rect></g>
<g transform="translate(702,702) scale(4.635)"><rect width="6" height="6"></rect></g>
<g transform="translate(729,702) scale(4.635)"><rect width="6" height="6"></rect></g>
<g transform="translate(756,702) scale(4.635)"><rect width="6" height="6"></rect></g>
<g transform="translate(783,702) scale(4.635)"><rect width="6" height="6"></rect></g>
<g transform="translate(810,702) scale(4.635)"><rect width="6" height="6"></rect></g>
<g transform="translate(837,702) scale(4.635)"><rect width="6" height="6"></rect></g>
<g transform="translate(918,702) scale(4.635)"><rect width="6" height="6"></rect></g>
<g transform="translate(270,729) scale(4.635)"><rect width="6" height="6"></rect></g>
<g transform="translate(351,729) scale(4.635)"><rect width="6" height="6"></rect></g>
<g transform="translate(513,729) scale(4.635)"><rect width="6" height="6"></rect></g>
<g transform="translate(567,729) scale(4.635)"><rect width="6" height="6"></rect></g>
<g transform="translate(594,729) scale(4.635)"><rect width="6" height="6"></rect></g>
<g transform="translate(648,729) scale(4.635)"><rect width="6" height="6"></rect></g>
<g transform="translate(702,729) scale(4.635)"><rect width="6" height="6"></rect></g>
<g transform="translate(810,729) scale(4.635)"><rect width="6" height="6"></rect></g>
<g transform="translate(918,729) scale(4.635)"><rect width="6" height="6"></rect></g>
<g transform="translate(351,756) scale(4.635)"><rect width="6" height="6"></rect></g>
<g transform="translate(405,756) scale(4.635)"><rect width="6" height="6"></rect></g>
<g transform="translate(432,756) scale(4.635)"><rect width="6" height="6"></rect></g>
<g transform="translate(486,756) scale(4.635)"><rect width="6" height="6"></rect></g>
<g transform="translate(567,756) scale(4.635)"><rect width="6" height="6"></rect></g>
<g transform="translate(594,756) scale(4.635)"><rect width="6" height="6"></rect></g>
<g transform="translate(648,756) scale(4.635)"><rect width="6" height="6"></rect></g>
<g transform="translate(675,756) scale(4.635)"><rect width="6" height="6"></rect></g>
<g transform="translate(702,756) scale(4.635)"><rect width="6" height="6"></rect></g>
<g transform="translate(756,756) scale(4.635)"><rect width="6" height="6"></rect></g>
<g transform="translate(810,756) scale(4.635)"><rect width="6" height="6"></rect></g>
<g transform="translate(864,756) scale(4.635)"><rect width="6" height="6"></rect></g>
<g transform="translate(891,756) scale(4.635)"><rect width="6" height="6"></rect></g>
<g transform="translate(351,783) scale(4.635)"><rect width="6" height="6"></rect></g>
<g transform="translate(405,783) scale(4.635)"><rect width="6" height="6"></rect></g>
<g transform="translate(432,783) scale(4.635)"><rect width="6" height="6"></rect></g>
<g transform="translate(459,783) scale(4.635)"><rect width="6" height="6"></rect></g>
<g transform="translate(567,783) scale(4.635)"><rect width="6" height="6"></rect></g>
<g transform="translate(675,783) scale(4.635)"><rect width="6" height="6"></rect></g>
<g transform="translate(702,783) scale(4.635)"><rect width="6" height="6"></rect></g>
<g transform="translate(810,783) scale(4.635)"><rect width="6" height="6"></rect></g>
<g transform="translate(837,783) scale(4.635)"><rect width="6" height="6"></rect></g>
<g transform="translate(864,783) scale(4.635)"><rect width="6" height="6"></rect></g>
<g transform="translate(891,783) scale(4.635)"><rect width="6" height="6"></rect></g>
<g transform="translate(918,783) scale(4.635)"><rect width="6" height="6"></rect></g>
<g transform="translate(270,810) scale(4.635)"><rect width="6" height="6"></rect></g>
<g transform="translate(297,810) scale(4.635)"><rect width="6" height="6"></rect></g>
<g transform="translate(378,810) scale(4.635)"><rect width="6" height="6"></rect></g>
<g transform="translate(432,810) scale(4.635)"><rect width="6" height="6"></rect></g>
<g transform="translate(486,810) scale(4.635)"><rect width="6" height="6"></rect></g>
<g transform="translate(540,810) scale(4.635)"><rect width="6" height="6"></rect></g>
<g transform="translate(567,810) scale(4.635)"><rect width="6" height="6"></rect></g>
<g transform="translate(594,810) scale(4.635)"><rect width="6" height="6"></rect></g>
<g transform="translate(621,810) scale(4.635)"><rect width="6" height="6"></rect></g>
<g transform="translate(648,810) scale(4.635)"><rect width="6" height="6"></rect></g>
<g transform="translate(702,810) scale(4.635)"><rect width="6" height="6"></rect></g>
<g transform="translate(729,810) scale(4.635)"><rect width="6" height="6"></rect></g>
<g transform="translate(756,810) scale(4.635)"><rect width="6" height="6"></rect></g>
<g transform="translate(783,810) scale(4.635)"><rect width="6" height="6"></rect></g>
<g transform="translate(810,810) scale(4.635)"><rect width="6" height="6"></rect></g>
<g transform="translate(837,810) scale(4.635)"><rect width="6" height="6"></rect></g>
<g transform="translate(891,810) scale(4.635)"><rect width="6" height="6"></rect></g>
<g transform="translate(918,810) scale(4.635)"><rect width="6" height="6"></rect></g>
<g transform="translate(270,837) scale(4.635)"><rect width="6" height="6"></rect></g>
<g transform="translate(378,837) scale(4.635)"><rect width="6" height="6"></rect></g>
<g transform="translate(405,837) scale(4.635)"><rect width="6" height="6"></rect></g>
<g transform="translate(432,837) scale(4.635)"><rect width="6" height="6"></rect></g>
<g transform="translate(486,837) scale(4.635)"><rect width="6" height="6"></rect></g>
<g transform="translate(540,837) scale(4.635)"><rect width="6" height="6"></rect></g>
<g transform="translate(729,837) scale(4.635)"><rect width="6" height="6"></rect></g>
<g transform="translate(810,837) scale(4.635)"><rect width="6" height="6"></rect></g>
<g transform="translate(864,837) scale(4.635)"><rect width="6" height="6"></rect></g>
<g transform="translate(891,837) scale(4.635)"><rect width="6" height="6"></rect></g>
<g transform="translate(270,864) scale(4.635)"><rect width="6" height="6"></rect></g>
<g transform="translate(324,864) scale(4.635)"><rect width="6" height="6"></rect></g>
<g transform="translate(351,864) scale(4.635)"><rect width="6" height="6"></rect></g>
<g transform="translate(378,864) scale(4.635)"><rect width="6" height="6"></rect></g>
<g transform="translate(432,864) scale(4.635)"><rect width="6" height="6"></rect></g>
<g transform="translate(459,864) scale(4.635)"><rect width="6" height="6"></rect></g>
<g transform="translate(513,864) scale(4.635)"><rect width="6" height="6"></rect></g>
<g transform="translate(540,864) scale(4.635)"><rect width="6" height="6"></rect></g>
<g transform="translate(594,864) scale(4.635)"><rect width="6" height="6"></rect></g>
<g transform="translate(621,864) scale(4.635)"><rect width="6" height="6"></rect></g>
<g transform="translate(675,864) scale(4.635)"><rect width="6" height="6"></rect></g>
<g transform="translate(729,864) scale(4.635)"><rect width="6" height="6"></rect></g>
<g transform="translate(756,864) scale(4.635)"><rect width="6" height="6"></rect></g>
<g transform="translate(837,864) scale(4.635)"><rect width="6" height="6"></rect></g>
<g transform="translate(864,864) scale(4.635)"><rect width="6" height="6"></rect></g>
<g transform="translate(297,891) scale(4.635)"><rect width="6" height="6"></rect></g>
<g transform="translate(378,891) scale(4.635)"><rect width="6" height="6"></rect></g>
<g transform="translate(405,891) scale(4.635)"><rect width="6" height="6"></rect></g>
<g transform="translate(432,891) scale(4.635)"><rect width="6" height="6"></rect></g>
<g transform="translate(513,891) scale(4.635)"><rect width="6" height="6"></rect></g>
<g transform="translate(540,891) scale(4.635)"><rect width="6" height="6"></rect></g>
<g transform="translate(648,891) scale(4.635)"><rect width="6" height="6"></rect></g>
<g transform="translate(675,891) scale(4.635)"><rect width="6" height="6"></rect></g>
<g transform="translate(783,891) scale(4.635)"><rect width="6" height="6"></rect></g>
<g transform="translate(837,891) scale(4.635)"><rect width="6" height="6"></rect></g>
<g transform="translate(864,891) scale(4.635)"><rect width="6" height="6"></rect></g>
<g transform="translate(324,918) scale(4.635)"><rect width="6" height="6"></rect></g>
<g transform="translate(378,918) scale(4.635)"><rect width="6" height="6"></rect></g>
<g transform="translate(432,918) scale(4.635)"><rect width="6" height="6"></rect></g>
<g transform="translate(459,918) scale(4.635)"><rect width="6" height="6"></rect></g>
<g transform="translate(513,918) scale(4.635)"><rect width="6" height="6"></rect></g>
<g transform="translate(567,918) scale(4.635)"><rect width="6" height="6"></rect></g>
<g transform="translate(594,918) scale(4.635)"><rect width="6" height="6"></rect></g>
<g transform="translate(675,918) scale(4.635)"><rect width="6" height="6"></rect></g>
<g transform="translate(702,918) scale(4.635)"><rect width="6" height="6"></rect></g>
<g transform="translate(729,918) scale(4.635)"><rect width="6" height="6"></rect></g>
<g transform="translate(837,918) scale(4.635)"><rect width="6" height="6"></rect></g>
<g transform="translate(891,918) scale(4.635)"><rect width="6" height="6"></rect></g>
</g><g><g transform="translate(54,54)" fill="#000000"><g transform="scale(13.5)"><path d="M0,0v14h14V0H0z M12,12H2V2h10V12z"></path></g></g>
<g transform="translate(756,54)" fill="#000000"><g transform="scale(13.5)"><path d="M0,0v14h14V0H0z M12,12H2V2h10V12z"></path></g></g>
<g transform="translate(54,756)" fill="#000000"><g transform="scale(13.5)"><path d="M0,0v14h14V0H0z M12,12H2V2h10V12z"></path></g></g>
<g transform="translate(108,108)" fill="#000000"><g transform="scale(13.5)"><rect width="6" height="6"></rect></g></g>
<g transform="translate(810,108)" fill="#000000"><g transform="scale(13.5)"><rect width="6" height="6"></rect></g></g>
<g transform="translate(108,810)" fill="#000000"><g transform="scale(13.5)"><rect width="6" height="6"></rect></g></g></g>
</svg>